<?xml version="1.0" encoding="UTF-8" standalone="no"?>
<svg
   width="1050"
   zoomAndPan="magnify"
   viewBox="0 0 787.5 787.5"
   height="1050"
   preserveAspectRatio="xMidYMid"
   version="1.0"
   id="svg1"
   xmlns="http://www.w3.org/2000/svg"
   xmlns:svg="http://www.w3.org/2000/svg">
  <defs
     id="defs1" />
  <g
     transform="matrix(0.75,0,0,0.75,1.8049388,-1007.1539)"
     id="g1">
    <g
       id="g5577-8-1-4"
       transform="translate(-608.21782,459.4471)">
      <g
         id="g2"
         transform="matrix(1.6023889,0,0,1.6023889,-689.57878,-554.62755)">
        <path
           style="fill:#b3863f"
           d="m 1027.891,1422.7764 c 0.2985,-0.483 4.7125,-3.2318 9.809,-6.1086 5.0965,-2.8768 13.3164,-7.7546 18.2664,-10.8395 4.95,-3.085 12.825,-8.3016 17.5,-11.5926 4.675,-3.2909 12.1,-8.9085 16.5,-12.4834 4.4,-3.575 12.95,-10.8614 19,-16.1921 6.05,-5.3307 14.8678,-13.9027 19.5951,-19.049 4.7273,-5.1462 11.2697,-12.5068 14.5386,-16.3568 3.2689,-3.85 8.9159,-11.05 12.5488,-16 3.6329,-4.95 9.4343,-13.5 12.892,-19 3.4577,-5.5 9.5473,-16.75 13.5324,-25 3.9852,-8.25 8.8597,-19.6726 10.8323,-25.3836 1.9725,-5.711 4.4502,-13.811 5.506,-18 1.0558,-4.189 2.6558,-11.2164 3.5555,-15.6164 0.8998,-4.4 2.2763,-13.4 3.0589,-20 0.7827,-6.6 1.4269,-18.2052 1.4317,-25.7894 0,-7.5842 -0.4634,-18.1592 -1.0404,-23.5 -0.577,-5.3408 -1.7108,-13.3106 -2.5196,-17.7106 -0.8088,-4.4 -2.5412,-11.825 -3.8497,-16.5 -1.3085,-4.675 -2.6979,-9.2875 -3.0874,-10.25 -0.4227,-1.0445 -0.2582,-1.75 0.4081,-1.75 0.614,0 5.7901,4.6125 11.5023,10.25 6.9706,6.8793 12.564,13.5924 17.0089,20.4137 3.6426,5.59 9.0174,15.265 11.944,21.5 2.9266,6.235 6.7236,15.6113 8.4379,20.8363 1.7143,5.225 4.0023,13.1 5.0844,17.5 1.0822,4.4 2.6709,12.5161 3.5306,18.0358 0.8597,5.5197 1.8522,16.5447 2.2057,24.5 0.3826,8.6104 0.1573,20.3325 -0.5566,28.9642 -0.6596,7.975 -2.0785,19.675 -3.153,26 -1.0745,6.325 -3.2766,16.7197 -4.8935,23.0993 -1.6169,6.3796 -4.5491,16.0546 -6.516,21.5 -1.967,5.4454 -6.0583,15.0703 -9.092,21.3888 -3.0336,6.3184 -8.4715,15.928 -12.0842,21.3547 -3.6127,5.4267 -10.4503,13.8021 -15.1947,18.6121 -4.7444,4.81 -11.4475,10.6357 -14.8959,12.946 -3.4484,2.3103 -9.2584,5.5414 -12.9111,7.1803 -3.6527,1.6388 -10.0563,4.0958 -14.2302,5.4599 -4.1739,1.3641 -12.2798,3.3862 -18.0132,4.4934 -5.7333,1.1072 -16.7583,2.4458 -24.5,2.9745 -7.7416,0.5287 -31.7648,0.968 -53.3848,0.9762 -22.3157,0.01 -39.0744,-0.3648 -38.7663,-0.8632 z m 204.0754,-406.2526 c -4.4,-2.7754 -15.65,-8.7854 -25,-13.3553 -9.35,-4.57001 -20.825,-9.68807 -25.5,-11.37351 -4.675,-1.68544 -13.9493,-4.62801 -20.6095,-6.53905 -6.6602,-1.91103 -17.9102,-4.59497 -25,-5.96431 -7.0898,-1.36933 -17.3905,-3.07054 -22.8905,-3.78047 -5.543,-0.71548 -18.4683,-1.23342 -29,-1.16209 -14.6997,0.0996 -21.4813,0.60217 -29.9626,2.22062 l -10.9627,2.09194 -4.5321,-2.25362 c -3.0839,-1.53351 -5.4247,-3.71687 -7.3257,-6.83289 -1.5365,-2.51859 -2.8889,-5.88679 -3.0053,-7.4849 -0.1962,-2.69341 0.3622,-3.18782 7.6453,-6.769 4.3213,-2.12484 10.8953,-4.9249 14.6088,-6.22235 3.7136,-1.29744 10.078,-3.24222 14.1431,-4.32173 4.0652,-1.0795 11.7737,-2.47836 17.1301,-3.10857 5.3565,-0.63021 10.1952,-0.8639 10.7528,-0.51932 0.6242,0.38579 0.6726,1.27559 0.126,2.31582 -0.4883,0.92913 -1.829,5.0373 -2.9794,9.12927 -1.1505,4.09198 -1.9619,7.56982 -1.8032,7.72854 0.1587,0.15871 6.7858,-4.01213 14.7267,-9.26855 l 14.4382,-9.55711 6.8745,0.59714 c 3.781,0.32842 10.981,1.48848 16,2.5779 5.019,1.08943 13.963,3.38939 19.8755,5.11103 5.9125,1.72164 10.75,3.5614 10.75,4.08835 0,0.52694 -3.3596,4.6091 -7.4657,9.07145 -4.1061,4.46235 -7.3686,8.19147 -7.25,8.28693 0.1186,0.0955 5.7071,-0.6553 12.4187,-1.66835 6.7117,-1.01305 15.7117,-2.6773 20,-3.69834 l 7.797,-1.85643 7.7255,3.82259 c 4.249,2.10242 11.1522,4.97288 15.3403,6.37879 4.3321,1.45424 11.1324,2.80365 15.7745,3.13019 4.4878,0.3157 11.9847,0.0572 16.6597,-0.57433 4.675,-0.63158 11.875,-1.99696 16,-3.03419 4.125,-1.03723 7.6212,-1.76982 7.7694,-1.62798 0.1482,0.14184 -7.323,11.21455 -16.6026,24.60601 -9.2796,13.39142 -17.2758,24.46382 -17.7694,24.60512 -0.4936,0.1414 -4.4974,-2.0138 -8.8974,-4.7893 z"
           id="path5578-2-1-2" />
        <path
           style="fill:#222a4d"
           d="m 984.68976,1466.2548 v -25.101 h 68.25614 c 53.9603,0 70.9116,-0.3106 80.9347,-1.4831 6.9731,-0.8157 16.6688,-2.3719 21.546,-3.4583 4.8771,-1.0863 12.894,-3.3957 17.8153,-5.1319 4.9213,-1.7362 12.0979,-4.732 15.9479,-6.6574 3.85,-1.9253 10.0592,-5.5226 13.7983,-7.9939 3.7391,-2.4713 10.4163,-8.1112 14.8382,-12.5332 4.4219,-4.4219 10.512,-11.3245 13.5336,-15.3389 3.0215,-4.0145 8.3359,-12.2802 11.8097,-18.3682 3.4739,-6.088 8.5779,-16.5739 11.3423,-23.3021 2.7644,-6.7282 6.6552,-17.6125 8.6463,-24.1874 1.9911,-6.575 4.926,-18.5 6.5219,-26.5 1.5959,-8.0001 3.4869,-19.2706 4.2022,-25.0456 0.7192,-5.8063 1.2991,-20.558 1.2972,-33 0,-12.8909 -0.5496,-26.3436 -1.2822,-31.5 -0.7034,-4.95 -2.1843,-13.275 -3.2909,-18.5 -1.1067,-5.225 -2.9067,-12.425 -4,-16 -1.0933,-3.575 -3.5799,-10.7613 -5.5257,-15.9696 -1.9459,-5.2083 -6.0103,-14.4288 -9.032,-20.4901 -3.0218,-6.0614 -8.0229,-14.85 -11.1136,-19.5305 -3.3122,-5.0159 -10.3668,-13.2594 -17.1824,-20.0782 -7.5972,-7.6009 -14.9967,-13.841 -21.5749,-18.1947 -5.5066,-3.6444 -15.1816,-9.0981 -21.5,-12.1194 -6.3184,-3.0212 -13.8505,-6.3779 -16.738,-7.4593 -2.8875,-1.0813 -5.25,-1.7721 -5.25,-1.5351 0,0.237 3.1522,6.1563 7.0049,13.1539 3.8527,6.9976 8.9996,17.448 11.4376,23.223 2.438,5.775 5.5586,14.394 6.9347,19.1534 1.376,4.7593 3.1825,11.9593 4.0144,16 0.8318,4.0406 2.0383,12.5216 2.681,18.8466 0.6831,6.722 0.9186,17.2103 0.5669,25.2439 -0.3309,7.5591 -1.3078,18.5841 -2.1709,24.5 -0.8631,5.9158 -2.8764,15.9611 -4.4741,22.3228 -1.5976,6.3616 -4.5446,16.2616 -6.5488,22 -2.0042,5.7383 -6.6995,16.7333 -10.4341,24.4333 -3.7345,7.7 -11.3086,20.75 -16.8312,29 -5.5226,8.25 -14.01,19.7228 -18.8608,25.4952 -4.8508,5.7724 -14.4726,16.144 -21.3819,23.048 -6.9092,6.904 -18.6092,17.4029 -26,23.3308 -7.3907,5.9279 -19.0627,14.4878 -25.9377,19.022 -6.875,4.5342 -16.1,10.2934 -20.5,12.7982 -4.4,2.5048 -13.175,7.158 -19.5,10.3404 -6.325,3.1824 -16.6603,7.9301 -22.9674,10.5505 -6.30704,2.6203 -11.75423,4.587 -12.10486,4.3703 -0.35063,-0.2167 -1.79705,-3.6703 -3.21428,-7.6747 -1.41722,-4.0044 -3.24662,-9.7557 -4.06532,-12.7807 -0.81869,-3.025 -2.03105,-8.9556 -2.69412,-13.1791 -0.74715,-4.759 -1.0167,-13.315 -0.70885,-22.5 0.34121,-10.1805 1.15764,-17.5482 2.60756,-23.5315 1.16095,-4.7909 3.75571,-12.8909 5.76615,-18 2.01044,-5.1092 6.32464,-14.6318 9.58711,-21.1615 3.26248,-6.5296 8.45781,-15.9796 11.54521,-21 3.0874,-5.0203 8.0384,-12.4294 11.0024,-16.4647 2.9639,-4.0352 8.3622,-10.7852 11.9962,-15 3.634,-4.2147 10.4771,-11.7132 15.207,-16.6632 4.7298,-4.95 13.8934,-15.075 20.3635,-22.5 6.4702,-7.425 14.4801,-17.4526 17.7998,-22.2836 3.3197,-4.831 7.3646,-11.7143 8.9887,-15.2962 1.6241,-3.5819 4.089,-10.1087 5.4774,-14.5039 1.3885,-4.3953 3.1411,-11.237 3.8948,-15.2038 0.7537,-3.9669 1.6902,-12.05 2.0811,-17.9625 0.4051,-6.1258 0.3295,-10.7221 -0.1757,-10.6851 -0.4875,0.036 -3.3315,3.8519 -6.32,8.4803 -2.9884,4.6284 -8.9695,12.2297 -13.2913,16.8917 -4.3218,4.662 -11.4333,11.1705 -15.8033,14.4634 -4.37,3.2929 -10.9451,7.6645 -14.6113,9.7148 -3.6663,2.0503 -13.4597,6.6022 -21.7632,10.1154 -8.3036,3.5131 -17.8785,7.9405 -21.2777,9.8385 -3.3992,1.898 -8.68772,5.7426 -11.75232,8.5435 -4.1544,3.7968 -6.55507,7.1653 -9.43599,13.24 -2.12519,4.4811 -4.60371,9.8599 -5.50784,11.9528 -1.18109,2.734 -2.69584,4.2448 -5.38071,5.3666 -2.6115,1.0912 -5.39405,1.3879 -9.23981,0.9855 -3.02664,-0.3167 -9.44233,-1.7178 -14.2571,-3.1135 -4.81477,-1.3956 -10.79586,-3.4973 -13.29131,-4.6703 -2.49545,-1.173 -5.14958,-3.3169 -5.89806,-4.7643 -1.1485,-2.221 -1.14651,-4.0738 0.0128,-11.8728 0.7555,-5.0827 2.55182,-14.4943 3.99182,-20.9148 1.44,-6.4205 4.83095,-19.729 7.53545,-29.5744 2.7045,-9.8455 7.43784,-24.2788 10.51853,-32.0741 3.0807,-7.7953 8.68431,-20.2482 12.45247,-27.6732 3.76817,-7.425 10.08104,-18.675 14.02861,-25 3.94757,-6.325 10.37373,-15.764 14.28036,-20.9756 3.90663,-5.2116 10.3556,-12.6967 14.3311,-16.6337 l 7.2281,-7.1581 -7.7178,-4.4925 c -4.2449,-2.4709 -10.10476,-7.022 -13.02202,-10.1137 -2.91727,-3.0916 -6.49325,-8.20976 -7.94663,-11.37376 -2.02017,-4.3978 -2.74198,-7.7967 -3.06482,-14.4317 -0.33235,-6.8305 0.0219,-10.1414 1.66298,-15.5445 1.2781,-4.2079 3.39013,-8.3748 5.4562,-10.7649 l 3.3709,-3.89958 0.63661,6.09068 c 0.35013,3.3499 1.57863,8.4807 2.72999,11.4017 1.15136,2.921 3.72479,7.5333 5.71869,10.2496 1.9939,2.7162 6.2654,6.645 9.4923,8.7306 3.2268,2.0856 8.6827,4.7291 12.1241,5.8743 3.4413,1.1452 9.152,2.3473 12.6904,2.6713 4.5806,0.4194 10.1772,-0.086 19.4334,-1.7543 11.0278,-1.9879 16.1859,-2.3356 34,-2.2918 16.8891,0.041 23.5449,0.4837 34,2.259 7.15,1.2142 18.9645,3.7711 26.2543,5.68206 7.2899,1.911 18.3149,5.3124 24.5,7.5586 6.1852,2.2462 18.8957,7.8364 28.2457,12.4227 9.35,4.5862 21.2749,11.1872 26.4999,14.669 5.225,3.4817 12.875,8.8872 17,12.0122 4.125,3.125 11.1,8.9867 15.5,13.0259 4.4,4.0392 11.6187,11.1561 16.0415,15.8153 4.4228,4.6591 10.5296,11.6212 13.5707,15.4712 3.0411,3.85 7.7922,10.375 10.5581,14.5 2.7658,4.125 7.0651,11.1 9.554,15.5 2.4888,4.4 6.3422,12.275 8.563,17.5 2.2209,5.225 5.9075,14.9 8.1925,21.5 2.285,6.6 5.4391,17.4 7.0091,24 1.5701,6.6 3.5553,16.5 4.4117,22 0.8565,5.5 2.0684,16.75 2.6933,25 0.6314,8.3365 0.8519,20.8806 0.4963,28.2376 -0.3518,7.2806 -1.2748,18.3056 -2.051,24.5 -0.7762,6.1943 -2.5898,16.8874 -4.0302,23.7624 -1.4405,6.875 -4.6533,18.575 -7.1397,26 -2.4864,7.425 -7.5571,19.8 -11.2682,27.5 -3.7112,7.7 -9.0276,17.6684 -11.8144,22.1519 -2.7867,4.4836 -9.0345,13.4836 -13.8839,20 -4.9657,6.6727 -14.9513,17.9986 -22.86,25.9283 -7.7235,7.7442 -17.6578,16.8027 -22.0762,20.1301 -4.4183,3.3274 -11.3123,8.1709 -15.32,10.7634 -4.0076,2.5926 -11.7457,6.9339 -17.1957,9.6474 -5.45,2.7135 -15.2351,6.7144 -21.7444,8.8908 -6.5094,2.1763 -16.3063,4.8796 -21.7708,6.0072 -5.4646,1.1277 -15.3356,2.7579 -21.9356,3.6229 -9.6783,1.2683 -26.9462,1.6681 -89.25,2.0663 l -77.25001,0.4937 z m 22.00004,-372.4801 c 3.575,-2.761 10.325,-8.3767 15,-12.4793 4.675,-4.1026 10.174,-9.3003 12.2201,-11.5504 2.0461,-2.2502 3.7336,-4.4087 3.75,-4.7969 0.016,-0.3881 -1.8197,-0.053 -4.0803,0.7445 -2.2605,0.7976 -6.8519,3.1158 -10.203,5.1515 -3.3512,2.0357 -9.376,6.8197 -13.3885,10.6313 -4.0126,3.8115 -9.5462,9.9659 -12.29695,13.6765 -2.75076,3.7106 -5.00139,7.0657 -5.00139,7.4558 0,0.39 1.6875,-0.3083 3.75,-1.5519 2.0625,-1.2437 6.67504,-4.5202 10.25004,-7.2811 z"
           id="path5577-4-5-3" />
      </g>
    </g>
  </g>
</svg>
